<mxfile host="app.diagrams.net" agent="Mozilla/5.0 (Macintosh; Intel Mac OS X 10_15_7) AppleWebKit/537.36 (KHTML, like Gecko) Chrome/128.0.0.0 Safari/537.36" version="24.7.10">
  <diagram name="Page-1" id="_GyrP_3oqklXjdWN7-FQ">
    <mxGraphModel dx="1306" dy="835" grid="1" gridSize="10" guides="1" tooltips="1" connect="1" arrows="1" fold="1" page="1" pageScale="1" pageWidth="827" pageHeight="1169" math="0" shadow="0">
      <root>
        <mxCell id="0" />
        <mxCell id="1" parent="0" />
        <mxCell id="2yZ6IZibKsrI4easGU-Z-67" style="edgeStyle=none;shape=connector;rounded=0;orthogonalLoop=1;jettySize=auto;html=1;strokeColor=default;align=center;verticalAlign=middle;fontFamily=Helvetica;fontSize=11;fontColor=default;labelBackgroundColor=default;endArrow=none;endFill=0;" edge="1" parent="1" source="2yZ6IZibKsrI4easGU-Z-41" target="2yZ6IZibKsrI4easGU-Z-65">
          <mxGeometry relative="1" as="geometry" />
        </mxCell>
        <mxCell id="2yZ6IZibKsrI4easGU-Z-41" value="" style="rounded=1;whiteSpace=wrap;html=1;dashed=1;" vertex="1" parent="1">
          <mxGeometry x="374" y="180" width="200" height="100" as="geometry" />
        </mxCell>
        <mxCell id="2yZ6IZibKsrI4easGU-Z-26" value="" style="shape=connector;rounded=0;orthogonalLoop=1;jettySize=auto;html=1;strokeColor=default;align=center;verticalAlign=middle;fontFamily=Helvetica;fontSize=11;fontColor=default;labelBackgroundColor=default;endArrow=none;endFill=0;" edge="1" parent="1" source="2yZ6IZibKsrI4easGU-Z-24" target="2yZ6IZibKsrI4easGU-Z-25">
          <mxGeometry relative="1" as="geometry" />
        </mxCell>
        <mxCell id="2yZ6IZibKsrI4easGU-Z-28" value="" style="shape=connector;rounded=0;orthogonalLoop=1;jettySize=auto;html=1;strokeColor=default;align=center;verticalAlign=middle;fontFamily=Helvetica;fontSize=11;fontColor=default;labelBackgroundColor=default;endArrow=none;endFill=0;" edge="1" parent="1" source="2yZ6IZibKsrI4easGU-Z-24" target="2yZ6IZibKsrI4easGU-Z-27">
          <mxGeometry relative="1" as="geometry" />
        </mxCell>
        <mxCell id="2yZ6IZibKsrI4easGU-Z-30" value="" style="edgeStyle=orthogonalEdgeStyle;shape=connector;rounded=0;orthogonalLoop=1;jettySize=auto;html=1;strokeColor=default;align=center;verticalAlign=middle;fontFamily=Helvetica;fontSize=11;fontColor=default;labelBackgroundColor=default;endArrow=none;endFill=0;" edge="1" parent="1" source="2yZ6IZibKsrI4easGU-Z-24" target="2yZ6IZibKsrI4easGU-Z-29">
          <mxGeometry relative="1" as="geometry" />
        </mxCell>
        <mxCell id="2yZ6IZibKsrI4easGU-Z-24" value="用户" style="rounded=1;whiteSpace=wrap;html=1;fontFamily=Helvetica;fontSize=11;fontColor=default;labelBackgroundColor=default;" vertex="1" parent="1">
          <mxGeometry x="124" y="190" width="60" height="30" as="geometry" />
        </mxCell>
        <mxCell id="2yZ6IZibKsrI4easGU-Z-25" value="账号" style="rounded=1;whiteSpace=wrap;html=1;fontFamily=Helvetica;fontSize=11;fontColor=default;labelBackgroundColor=default;" vertex="1" parent="1">
          <mxGeometry x="14" y="260" width="60" height="30" as="geometry" />
        </mxCell>
        <mxCell id="2yZ6IZibKsrI4easGU-Z-27" value="员工" style="rounded=1;whiteSpace=wrap;html=1;fontFamily=Helvetica;fontSize=11;fontColor=default;labelBackgroundColor=default;" vertex="1" parent="1">
          <mxGeometry x="14" y="160" width="60" height="30" as="geometry" />
        </mxCell>
        <mxCell id="2yZ6IZibKsrI4easGU-Z-33" value="" style="edgeStyle=orthogonalEdgeStyle;shape=connector;rounded=0;orthogonalLoop=1;jettySize=auto;html=1;strokeColor=default;align=center;verticalAlign=middle;fontFamily=Helvetica;fontSize=11;fontColor=default;labelBackgroundColor=default;endArrow=none;endFill=0;" edge="1" parent="1" source="2yZ6IZibKsrI4easGU-Z-29" target="2yZ6IZibKsrI4easGU-Z-32">
          <mxGeometry relative="1" as="geometry" />
        </mxCell>
        <mxCell id="2yZ6IZibKsrI4easGU-Z-29" value="动态组" style="rounded=1;whiteSpace=wrap;html=1;fontFamily=Helvetica;fontSize=11;fontColor=default;labelBackgroundColor=default;" vertex="1" parent="1">
          <mxGeometry x="234" y="190" width="60" height="30" as="geometry" />
        </mxCell>
        <mxCell id="2yZ6IZibKsrI4easGU-Z-45" value="" style="edgeStyle=orthogonalEdgeStyle;shape=connector;rounded=0;orthogonalLoop=1;jettySize=auto;html=1;strokeColor=default;align=center;verticalAlign=middle;fontFamily=Helvetica;fontSize=11;fontColor=default;labelBackgroundColor=default;endArrow=none;endFill=0;" edge="1" parent="1" source="2yZ6IZibKsrI4easGU-Z-32" target="2yZ6IZibKsrI4easGU-Z-44">
          <mxGeometry relative="1" as="geometry" />
        </mxCell>
        <mxCell id="2yZ6IZibKsrI4easGU-Z-61" style="edgeStyle=none;shape=connector;rounded=0;orthogonalLoop=1;jettySize=auto;html=1;strokeColor=default;align=center;verticalAlign=middle;fontFamily=Helvetica;fontSize=11;fontColor=default;labelBackgroundColor=default;endArrow=none;endFill=0;" edge="1" parent="1" source="2yZ6IZibKsrI4easGU-Z-32" target="2yZ6IZibKsrI4easGU-Z-38">
          <mxGeometry relative="1" as="geometry" />
        </mxCell>
        <mxCell id="2yZ6IZibKsrI4easGU-Z-32" value="角色" style="rounded=1;whiteSpace=wrap;html=1;fontFamily=Helvetica;fontSize=11;fontColor=default;labelBackgroundColor=default;" vertex="1" parent="1">
          <mxGeometry x="391.5" y="190" width="60" height="30" as="geometry" />
        </mxCell>
        <mxCell id="2yZ6IZibKsrI4easGU-Z-37" value="" style="edgeStyle=orthogonalEdgeStyle;shape=connector;rounded=0;orthogonalLoop=1;jettySize=auto;html=1;strokeColor=default;align=center;verticalAlign=middle;fontFamily=Helvetica;fontSize=11;fontColor=default;labelBackgroundColor=default;endArrow=none;endFill=0;" edge="1" parent="1" source="2yZ6IZibKsrI4easGU-Z-34" target="2yZ6IZibKsrI4easGU-Z-36">
          <mxGeometry relative="1" as="geometry" />
        </mxCell>
        <mxCell id="2yZ6IZibKsrI4easGU-Z-34" value="菜单" style="rounded=1;whiteSpace=wrap;html=1;fontFamily=Helvetica;fontSize=11;fontColor=default;labelBackgroundColor=default;" vertex="1" parent="1">
          <mxGeometry x="494" y="190" width="60" height="30" as="geometry" />
        </mxCell>
        <mxCell id="2yZ6IZibKsrI4easGU-Z-39" value="" style="edgeStyle=orthogonalEdgeStyle;shape=connector;rounded=0;orthogonalLoop=1;jettySize=auto;html=1;strokeColor=default;align=center;verticalAlign=middle;fontFamily=Helvetica;fontSize=11;fontColor=default;labelBackgroundColor=default;endArrow=none;endFill=0;" edge="1" parent="1" source="2yZ6IZibKsrI4easGU-Z-36" target="2yZ6IZibKsrI4easGU-Z-38">
          <mxGeometry relative="1" as="geometry" />
        </mxCell>
        <mxCell id="2yZ6IZibKsrI4easGU-Z-36" value="资源" style="rounded=1;whiteSpace=wrap;html=1;fontFamily=Helvetica;fontSize=11;fontColor=default;labelBackgroundColor=default;" vertex="1" parent="1">
          <mxGeometry x="494" y="240" width="60" height="30" as="geometry" />
        </mxCell>
        <mxCell id="2yZ6IZibKsrI4easGU-Z-62" style="edgeStyle=orthogonalEdgeStyle;shape=connector;rounded=0;orthogonalLoop=1;jettySize=auto;html=1;strokeColor=default;align=center;verticalAlign=middle;fontFamily=Helvetica;fontSize=11;fontColor=default;labelBackgroundColor=default;endArrow=none;endFill=0;" edge="1" parent="1" source="2yZ6IZibKsrI4easGU-Z-38" target="2yZ6IZibKsrI4easGU-Z-24">
          <mxGeometry relative="1" as="geometry" />
        </mxCell>
        <mxCell id="2yZ6IZibKsrI4easGU-Z-38" value="权限" style="rounded=1;whiteSpace=wrap;html=1;fontFamily=Helvetica;fontSize=11;fontColor=default;labelBackgroundColor=default;" vertex="1" parent="1">
          <mxGeometry x="391.5" y="240" width="60" height="30" as="geometry" />
        </mxCell>
        <mxCell id="2yZ6IZibKsrI4easGU-Z-47" value="" style="edgeStyle=orthogonalEdgeStyle;shape=connector;rounded=0;orthogonalLoop=1;jettySize=auto;html=1;strokeColor=default;align=center;verticalAlign=middle;fontFamily=Helvetica;fontSize=11;fontColor=default;labelBackgroundColor=default;endArrow=none;endFill=0;" edge="1" parent="1" source="2yZ6IZibKsrI4easGU-Z-44" target="2yZ6IZibKsrI4easGU-Z-46">
          <mxGeometry relative="1" as="geometry" />
        </mxCell>
        <mxCell id="2yZ6IZibKsrI4easGU-Z-44" value="共享角色" style="rounded=1;whiteSpace=wrap;html=1;fontFamily=Helvetica;fontSize=11;fontColor=default;labelBackgroundColor=default;" vertex="1" parent="1">
          <mxGeometry x="391.5" y="80" width="60" height="30" as="geometry" />
        </mxCell>
        <mxCell id="2yZ6IZibKsrI4easGU-Z-66" value="" style="edgeStyle=none;shape=connector;rounded=0;orthogonalLoop=1;jettySize=auto;html=1;strokeColor=default;align=center;verticalAlign=middle;fontFamily=Helvetica;fontSize=11;fontColor=default;labelBackgroundColor=default;endArrow=none;endFill=0;" edge="1" parent="1" source="2yZ6IZibKsrI4easGU-Z-46" target="2yZ6IZibKsrI4easGU-Z-65">
          <mxGeometry relative="1" as="geometry" />
        </mxCell>
        <mxCell id="2yZ6IZibKsrI4easGU-Z-46" value="互信组" style="rounded=1;whiteSpace=wrap;html=1;fontFamily=Helvetica;fontSize=11;fontColor=default;labelBackgroundColor=default;" vertex="1" parent="1">
          <mxGeometry x="512.5" y="80" width="60" height="30" as="geometry" />
        </mxCell>
        <mxCell id="2yZ6IZibKsrI4easGU-Z-55" style="edgeStyle=none;shape=connector;rounded=0;orthogonalLoop=1;jettySize=auto;html=1;strokeColor=default;align=center;verticalAlign=middle;fontFamily=Helvetica;fontSize=11;fontColor=default;labelBackgroundColor=default;endArrow=none;endFill=0;" edge="1" parent="1" source="2yZ6IZibKsrI4easGU-Z-53" target="2yZ6IZibKsrI4easGU-Z-65">
          <mxGeometry relative="1" as="geometry" />
        </mxCell>
        <mxCell id="2yZ6IZibKsrI4easGU-Z-53" value="研发管理员" style="rounded=1;whiteSpace=wrap;html=1;fontFamily=Helvetica;fontSize=11;fontColor=default;labelBackgroundColor=default;" vertex="1" parent="1">
          <mxGeometry x="757" y="215" width="70" height="30" as="geometry" />
        </mxCell>
        <mxCell id="2yZ6IZibKsrI4easGU-Z-72" style="edgeStyle=orthogonalEdgeStyle;shape=connector;rounded=0;orthogonalLoop=1;jettySize=auto;html=1;strokeColor=default;align=center;verticalAlign=middle;fontFamily=Helvetica;fontSize=11;fontColor=default;labelBackgroundColor=default;endArrow=none;endFill=0;" edge="1" parent="1" source="2yZ6IZibKsrI4easGU-Z-56" target="2yZ6IZibKsrI4easGU-Z-68">
          <mxGeometry relative="1" as="geometry">
            <Array as="points">
              <mxPoint x="683" y="40" />
              <mxPoint x="44" y="40" />
            </Array>
          </mxGeometry>
        </mxCell>
        <mxCell id="2yZ6IZibKsrI4easGU-Z-56" value="权限管理员" style="rounded=1;whiteSpace=wrap;html=1;fontFamily=Helvetica;fontSize=11;fontColor=default;labelBackgroundColor=default;" vertex="1" parent="1">
          <mxGeometry x="652.5" y="80" width="60" height="30" as="geometry" />
        </mxCell>
        <mxCell id="2yZ6IZibKsrI4easGU-Z-57" style="edgeStyle=none;shape=connector;rounded=0;orthogonalLoop=1;jettySize=auto;html=1;strokeColor=default;align=center;verticalAlign=middle;fontFamily=Helvetica;fontSize=11;fontColor=default;labelBackgroundColor=default;endArrow=none;endFill=0;" edge="1" parent="1" source="2yZ6IZibKsrI4easGU-Z-56" target="2yZ6IZibKsrI4easGU-Z-65">
          <mxGeometry relative="1" as="geometry" />
        </mxCell>
        <mxCell id="2yZ6IZibKsrI4easGU-Z-59" style="edgeStyle=none;shape=connector;rounded=0;orthogonalLoop=1;jettySize=auto;html=1;strokeColor=default;align=center;verticalAlign=middle;fontFamily=Helvetica;fontSize=11;fontColor=default;labelBackgroundColor=default;endArrow=none;endFill=0;" edge="1" parent="1" source="2yZ6IZibKsrI4easGU-Z-58" target="2yZ6IZibKsrI4easGU-Z-32">
          <mxGeometry relative="1" as="geometry" />
        </mxCell>
        <mxCell id="2yZ6IZibKsrI4easGU-Z-58" value="角色管理员" style="rounded=1;whiteSpace=wrap;html=1;fontFamily=Helvetica;fontSize=11;fontColor=default;labelBackgroundColor=default;" vertex="1" parent="1">
          <mxGeometry x="294" y="80" width="60" height="30" as="geometry" />
        </mxCell>
        <mxCell id="2yZ6IZibKsrI4easGU-Z-65" value="应用" style="rounded=1;whiteSpace=wrap;html=1;fontFamily=Helvetica;fontSize=11;fontColor=default;labelBackgroundColor=default;" vertex="1" parent="1">
          <mxGeometry x="652.5" y="215" width="60" height="30" as="geometry" />
        </mxCell>
        <mxCell id="2yZ6IZibKsrI4easGU-Z-71" style="edgeStyle=none;shape=connector;rounded=0;orthogonalLoop=1;jettySize=auto;html=1;strokeColor=default;align=center;verticalAlign=middle;fontFamily=Helvetica;fontSize=11;fontColor=default;labelBackgroundColor=default;endArrow=none;endFill=0;" edge="1" parent="1" source="2yZ6IZibKsrI4easGU-Z-68" target="2yZ6IZibKsrI4easGU-Z-58">
          <mxGeometry relative="1" as="geometry" />
        </mxCell>
        <mxCell id="2yZ6IZibKsrI4easGU-Z-68" value="组织" style="rounded=1;whiteSpace=wrap;html=1;fontFamily=Helvetica;fontSize=11;fontColor=default;labelBackgroundColor=default;" vertex="1" parent="1">
          <mxGeometry x="14" y="80" width="60" height="30" as="geometry" />
        </mxCell>
      </root>
    </mxGraphModel>
  </diagram>
</mxfile>
